<svg xmlns="http://www.w3.org/2000/svg" width="355.999" height="74.675" viewBox="220 82.44 355.999 74.675"><g data-name="LOGO Navigation"><g data-name="Group 122" transform="translate(220 82.44)" clip-path="url(&quot;#a&quot;)"><g data-name="Group 1"><path d="M2.088 1.044a1.044 1.044 0 1 1-2.089 0 1.044 1.044 0 0 1 2.089 0" fill="#fff" fill-rule="evenodd" data-name="Path 1"/></g><g data-name="Group 2"><path d="M8.896 3.234a1.044 1.044 0 1 1-2.088 0 1.044 1.044 0 0 1 2.088 0" fill="#fff" fill-rule="evenodd" data-name="Path 2"/></g><g data-name="Group 3"><path d="M15.706 5.423a1.044 1.044 0 1 1-2.09 0 1.044 1.044 0 0 1 2.09 0" fill="#fff" fill-rule="evenodd" data-name="Path 3"/></g><g data-name="Group 4"><path d="M22.514 3.233a1.044 1.044 0 1 1-2.09 0 1.044 1.044 0 0 1 2.09 0" fill="#fff" fill-rule="evenodd" data-name="Path 4"/></g><g data-name="Group 5"><path d="M29.323 1.044a1.044 1.044 0 1 1-2.089 0 1.044 1.044 0 0 1 2.09 0" fill="#fff" fill-rule="evenodd" data-name="Path 5"/></g><g data-name="Group 6"><path d="M36.131 3.233a1.044 1.044 0 1 1-2.088 0 1.044 1.044 0 0 1 2.088 0" fill="#fff" fill-rule="evenodd" data-name="Path 6"/></g><g data-name="Group 7"><path d="M42.94 5.423a1.044 1.044 0 1 1-2.088 0 1.044 1.044 0 0 1 2.089 0" fill="#fff" fill-rule="evenodd" data-name="Path 7"/></g><g data-name="Group 8"><path d="M49.748 3.233a1.044 1.044 0 1 1-2.089 0 1.044 1.044 0 0 1 2.09 0" fill="#fff" fill-rule="evenodd" data-name="Path 8"/></g><g data-name="Group 9"><path d="M56.558 1.044a1.044 1.044 0 1 1-2.089 0 1.044 1.044 0 0 1 2.089 0" fill="#fff" fill-rule="evenodd" data-name="Path 9"/></g><g data-name="Group 10"><path d="M63.366 3.234a1.044 1.044 0 1 1-2.089 0 1.044 1.044 0 0 1 2.089 0" fill="#fff" fill-rule="evenodd" data-name="Path 10"/></g><g data-name="Group 11"><path d="M70.175 5.423a1.044 1.044 0 1 1-2.089 0 1.044 1.044 0 0 1 2.089 0" fill="#fff" fill-rule="evenodd" data-name="Path 11"/></g><g data-name="Group 12"><path d="M2.088 7.865a1.044 1.044 0 1 1-2.089 0 1.044 1.044 0 0 1 2.089 0" fill="#fff" fill-rule="evenodd" data-name="Path 12"/></g><g data-name="Group 13"><path d="M8.896 10.054a1.044 1.044 0 1 1-2.088 0 1.044 1.044 0 0 1 2.088 0" fill="#fff" fill-rule="evenodd" data-name="Path 13"/></g><g data-name="Group 14"><path d="M15.706 12.243a1.044 1.044 0 1 1-2.09 0 1.044 1.044 0 0 1 2.09 0" fill="#fff" fill-rule="evenodd" data-name="Path 14"/></g><g data-name="Group 15"><path d="M22.514 10.054a1.044 1.044 0 1 1-2.09 0 1.044 1.044 0 0 1 2.09 0" fill="#fff" fill-rule="evenodd" data-name="Path 15"/></g><g data-name="Group 16"><path d="M29.323 7.865a1.044 1.044 0 1 1-2.089 0 1.044 1.044 0 0 1 2.09 0" fill="#fff" fill-rule="evenodd" data-name="Path 16"/></g><g data-name="Group 17"><path d="M36.445 10.054a1.356 1.356 0 1 1-2.713.001 1.356 1.356 0 0 1 2.713 0" fill="#fff" fill-rule="evenodd" data-name="Path 17"/></g><g data-name="Group 18"><path d="M42.94 12.243a1.044 1.044 0 1 1-2.088 0 1.044 1.044 0 0 1 2.089 0" fill="#fff" fill-rule="evenodd" data-name="Path 18"/></g><g data-name="Group 19"><path d="M49.748 10.054a1.044 1.044 0 1 1-2.089 0 1.044 1.044 0 0 1 2.09 0" fill="#fff" fill-rule="evenodd" data-name="Path 19"/></g><g data-name="Group 20"><path d="M56.558 7.865a1.044 1.044 0 1 1-2.089 0 1.044 1.044 0 0 1 2.089 0" fill="#fff" fill-rule="evenodd" data-name="Path 20"/></g><g data-name="Group 21"><path d="M63.366 10.054a1.044 1.044 0 1 1-2.089 0 1.044 1.044 0 0 1 2.089 0" fill="#fff" fill-rule="evenodd" data-name="Path 21"/></g><g data-name="Group 22"><path d="M70.175 12.243a1.044 1.044 0 1 1-2.089 0 1.044 1.044 0 0 1 2.089 0" fill="#fff" fill-rule="evenodd" data-name="Path 22"/></g><g data-name="Group 23"><path d="M2.088 14.686a1.044 1.044 0 1 1-2.089 0 1.044 1.044 0 0 1 2.089 0" fill="#fff" fill-rule="evenodd" data-name="Path 23"/></g><g data-name="Group 24"><path d="M8.896 16.875a1.044 1.044 0 1 1-2.088 0 1.044 1.044 0 0 1 2.088 0" fill="#fff" fill-rule="evenodd" data-name="Path 24"/></g><g data-name="Group 25"><path d="M15.706 19.064a1.044 1.044 0 1 1-2.09 0 1.044 1.044 0 0 1 2.09 0" fill="#fff" fill-rule="evenodd" data-name="Path 25"/></g><g data-name="Group 26"><path d="M22.514 16.875a1.044 1.044 0 1 1-2.09 0 1.044 1.044 0 0 1 2.09 0" fill="#fff" fill-rule="evenodd" data-name="Path 26"/></g><g data-name="Group 27"><path d="M29.636 14.686a1.356 1.356 0 1 1-2.713 0 1.356 1.356 0 0 1 2.713 0" fill="#fff" fill-rule="evenodd" data-name="Path 27"/></g><g data-name="Group 28"><path d="M36.758 16.875a1.67 1.67 0 1 1-3.341 0 1.67 1.67 0 0 1 3.34 0" fill="#fff" fill-rule="evenodd" data-name="Path 28"/></g><g data-name="Group 29"><path d="M43.254 19.064a1.356 1.356 0 1 1-2.713 0 1.356 1.356 0 0 1 2.713 0" fill="#fff" fill-rule="evenodd" data-name="Path 29"/></g><g data-name="Group 30"><path d="M49.748 16.874a1.044 1.044 0 1 1-2.089 0 1.044 1.044 0 0 1 2.09 0" fill="#fff" fill-rule="evenodd" data-name="Path 30"/></g><g data-name="Group 31"><path d="M56.558 14.686a1.044 1.044 0 1 1-2.089 0 1.044 1.044 0 0 1 2.089 0" fill="#fff" fill-rule="evenodd" data-name="Path 31"/></g><g data-name="Group 32"><path d="M63.366 16.875a1.044 1.044 0 1 1-2.089 0 1.044 1.044 0 0 1 2.089 0" fill="#fff" fill-rule="evenodd" data-name="Path 32"/></g><g data-name="Group 33"><path d="M70.175 19.064a1.044 1.044 0 1 1-2.089 0 1.044 1.044 0 0 1 2.089 0" fill="#fff" fill-rule="evenodd" data-name="Path 33"/></g><g data-name="Group 34"><path d="M2.088 21.507a1.044 1.044 0 1 1-2.089 0 1.044 1.044 0 0 1 2.089 0" fill="#fff" fill-rule="evenodd" data-name="Path 34"/></g><g data-name="Group 35"><path d="M8.896 23.696a1.044 1.044 0 1 1-2.088 0 1.044 1.044 0 0 1 2.088 0" fill="#fff" fill-rule="evenodd" data-name="Path 35"/></g><g data-name="Group 36"><path d="M16.019 25.885a1.356 1.356 0 1 1-2.713 0 1.356 1.356 0 0 1 2.713 0" fill="#fff" fill-rule="evenodd" data-name="Path 36"/></g><g data-name="Group 37"><path d="M23.14 23.695a1.67 1.67 0 1 1-3.341 0 1.67 1.67 0 0 1 3.341 0" fill="#fff" fill-rule="evenodd" data-name="Path 37"/></g><g data-name="Group 38"><path d="M30.263 21.507a1.983 1.983 0 1 1-3.966 0 1.983 1.983 0 0 1 3.966 0" fill="#fff" fill-rule="evenodd" data-name="Path 38"/></g><g data-name="Group 39"><path d="M37.07 23.696a1.983 1.983 0 1 1-3.965 0 1.983 1.983 0 0 1 3.966 0" fill="#fff" fill-rule="evenodd" data-name="Path 39"/></g><g data-name="Group 40"><path d="M43.88 25.885a1.983 1.983 0 1 1-3.965 0 1.983 1.983 0 0 1 3.965 0" fill="#fff" fill-rule="evenodd" data-name="Path 40"/></g><g data-name="Group 41"><path d="M50.375 23.695a1.67 1.67 0 1 1-3.342 0 1.67 1.67 0 0 1 3.342 0" fill="#fff" fill-rule="evenodd" data-name="Path 41"/></g><g data-name="Group 42"><path d="M56.87 21.507a1.356 1.356 0 1 1-2.712 0 1.356 1.356 0 0 1 2.713 0" fill="#fff" fill-rule="evenodd" data-name="Path 42"/></g><g data-name="Group 43"><path d="M63.366 23.696a1.044 1.044 0 1 1-2.089 0 1.044 1.044 0 0 1 2.089 0" fill="#fff" fill-rule="evenodd" data-name="Path 43"/></g><g data-name="Group 44"><path d="M70.175 25.885a1.044 1.044 0 1 1-2.089 0 1.044 1.044 0 0 1 2.089 0" fill="#fff" fill-rule="evenodd" data-name="Path 44"/></g><g data-name="Group 45"><path d="M2.088 28.327a1.044 1.044 0 1 1-2.089 0 1.044 1.044 0 0 1 2.089 0" fill="#fff" fill-rule="evenodd" data-name="Path 45"/></g><g data-name="Group 46"><path d="M9.21 30.517a1.356 1.356 0 1 1-2.713 0 1.356 1.356 0 0 1 2.713 0" fill="#fff" fill-rule="evenodd" data-name="Path 46"/></g><g data-name="Group 47"><path d="M16.332 32.706a1.67 1.67 0 1 1-3.341 0 1.67 1.67 0 0 1 3.341 0" fill="#fff" fill-rule="evenodd" data-name="Path 47"/></g><g data-name="Group 48"><path d="M23.453 30.516a1.983 1.983 0 1 1-3.965 0 1.983 1.983 0 0 1 3.965 0" fill="#fff" fill-rule="evenodd" data-name="Path 48"/></g><g data-name="Group 49"><path d="M30.576 28.327a2.296 2.296 0 1 1-4.592.002 2.296 2.296 0 0 1 4.592-.002" fill="#fff" fill-rule="evenodd" data-name="Path 49"/></g><g data-name="Group 50"><path d="M37.384 30.517a2.296 2.296 0 1 1-4.592 0 2.296 2.296 0 0 1 4.592 0" fill="#fff" fill-rule="evenodd" data-name="Path 50"/></g><g data-name="Group 51"><path d="M44.194 32.706a2.296 2.296 0 1 1-4.593.001 2.296 2.296 0 0 1 4.593-.001" fill="#fff" fill-rule="evenodd" data-name="Path 51"/></g><g data-name="Group 52"><path d="M50.688 30.516a1.983 1.983 0 1 1-3.966 0 1.983 1.983 0 0 1 3.966 0" fill="#fff" fill-rule="evenodd" data-name="Path 52"/></g><g data-name="Group 53"><path d="M57.184 28.327a1.67 1.67 0 1 1-3.341 0 1.67 1.67 0 0 1 3.341 0" fill="#fff" fill-rule="evenodd" data-name="Path 53"/></g><g data-name="Group 54"><path d="M63.68 30.517a1.356 1.356 0 1 1-2.714 0 1.356 1.356 0 0 1 2.713 0" fill="#fff" fill-rule="evenodd" data-name="Path 54"/></g><g data-name="Group 55"><path d="M70.175 32.706a1.044 1.044 0 1 1-2.089 0 1.044 1.044 0 0 1 2.089 0" fill="#fff" fill-rule="evenodd" data-name="Path 55"/></g><g data-name="Group 56"><path d="M2.088 35.148a1.044 1.044 0 1 1-2.089 0 1.044 1.044 0 0 1 2.089 0" fill="#fff" fill-rule="evenodd" data-name="Path 56"/></g><g data-name="Group 57"><path d="M9.21 37.338a1.356 1.356 0 1 1-2.713 0 1.356 1.356 0 0 1 2.713 0" fill="#fff" fill-rule="evenodd" data-name="Path 57"/></g><g data-name="Group 58"><path d="M16.332 39.526a1.67 1.67 0 1 1-3.341 0 1.67 1.67 0 0 1 3.341 0" fill="#fff" fill-rule="evenodd" data-name="Path 58"/></g><g data-name="Group 59"><path d="M23.453 37.337a1.983 1.983 0 1 1-3.965 0 1.983 1.983 0 0 1 3.965 0" fill="#fff" fill-rule="evenodd" data-name="Path 59"/></g><g data-name="Group 60"><path d="M30.576 35.148a2.296 2.296 0 1 1-4.592.002 2.296 2.296 0 0 1 4.592-.002" fill="#fff" fill-rule="evenodd" data-name="Path 60"/></g><g data-name="Group 61"><path d="M37.697 37.337a2.61 2.61 0 1 1-5.22 0 2.61 2.61 0 0 1 5.22 0" fill="#fff" fill-rule="evenodd" data-name="Path 61"/></g><g data-name="Group 62"><path d="M44.194 39.526a2.296 2.296 0 1 1-4.593.002 2.296 2.296 0 0 1 4.593-.002" fill="#fff" fill-rule="evenodd" data-name="Path 62"/></g><g data-name="Group 63"><path d="M50.688 37.337a1.983 1.983 0 1 1-3.966 0 1.983 1.983 0 0 1 3.966 0" fill="#fff" fill-rule="evenodd" data-name="Path 63"/></g><g data-name="Group 64"><path d="M57.184 35.148a1.67 1.67 0 1 1-3.341 0 1.67 1.67 0 0 1 3.341 0" fill="#fff" fill-rule="evenodd" data-name="Path 64"/></g><g data-name="Group 65"><path d="M63.68 37.338a1.356 1.356 0 1 1-2.714 0 1.356 1.356 0 0 1 2.713 0" fill="#fff" fill-rule="evenodd" data-name="Path 65"/></g><g data-name="Group 66"><path d="M70.175 39.526a1.044 1.044 0 1 1-2.089 0 1.044 1.044 0 0 1 2.089 0" fill="#fff" fill-rule="evenodd" data-name="Path 66"/></g><g data-name="Group 67"><path d="M2.088 41.97a1.044 1.044 0 1 1-2.089 0 1.044 1.044 0 0 1 2.089 0" fill="#fff" fill-rule="evenodd" data-name="Path 67"/></g><g data-name="Group 68"><path d="M9.21 44.158a1.356 1.356 0 1 1-2.713.001 1.356 1.356 0 0 1 2.713 0" fill="#fff" fill-rule="evenodd" data-name="Path 68"/></g><g data-name="Group 69"><path d="M16.332 46.347a1.67 1.67 0 1 1-3.341 0 1.67 1.67 0 0 1 3.341 0" fill="#fff" fill-rule="evenodd" data-name="Path 69"/></g><g data-name="Group 70"><path d="M23.453 44.158a1.983 1.983 0 1 1-3.965 0 1.983 1.983 0 0 1 3.965 0" fill="#fff" fill-rule="evenodd" data-name="Path 70"/></g><g data-name="Group 71"><path d="M30.576 41.97a2.296 2.296 0 1 1-4.592 0 2.296 2.296 0 0 1 4.592 0" fill="#fff" fill-rule="evenodd" data-name="Path 71"/></g><g data-name="Group 72"><path d="M37.384 44.158a2.296 2.296 0 1 1-4.592.001 2.296 2.296 0 0 1 4.592 0" fill="#fff" fill-rule="evenodd" data-name="Path 72"/></g><g data-name="Group 73"><path d="M44.194 46.347a2.296 2.296 0 1 1-4.593.002 2.296 2.296 0 0 1 4.593-.002" fill="#fff" fill-rule="evenodd" data-name="Path 73"/></g><g data-name="Group 74"><path d="M50.688 44.157a1.983 1.983 0 1 1-3.966.001 1.983 1.983 0 0 1 3.966 0" fill="#fff" fill-rule="evenodd" data-name="Path 74"/></g><g data-name="Group 75"><path d="M57.184 41.97a1.67 1.67 0 1 1-3.341-.001 1.67 1.67 0 0 1 3.341 0" fill="#fff" fill-rule="evenodd" data-name="Path 75"/></g><g data-name="Group 76"><path d="M63.68 44.158a1.356 1.356 0 1 1-2.714.001 1.356 1.356 0 0 1 2.713 0" fill="#fff" fill-rule="evenodd" data-name="Path 76"/></g><g data-name="Group 77"><path d="M70.175 46.347a1.044 1.044 0 1 1-2.089 0 1.044 1.044 0 0 1 2.089 0" fill="#fff" fill-rule="evenodd" data-name="Path 77"/></g><g data-name="Group 78"><path d="M2.088 48.79a1.044 1.044 0 1 1-2.089 0 1.044 1.044 0 0 1 2.089 0" fill="#fff" fill-rule="evenodd" data-name="Path 78"/></g><g data-name="Group 79"><path d="M8.896 50.979a1.044 1.044 0 1 1-2.088 0 1.044 1.044 0 0 1 2.088 0" fill="#fff" fill-rule="evenodd" data-name="Path 79"/></g><g data-name="Group 80"><path d="M16.019 53.168a1.356 1.356 0 1 1-2.713 0 1.356 1.356 0 0 1 2.713 0" fill="#fff" fill-rule="evenodd" data-name="Path 80"/></g><g data-name="Group 81"><path d="M23.14 50.978a1.67 1.67 0 1 1-3.341 0 1.67 1.67 0 0 1 3.341 0" fill="#fff" fill-rule="evenodd" data-name="Path 81"/></g><g data-name="Group 82"><path d="M30.263 48.79a1.983 1.983 0 1 1-3.966 0 1.983 1.983 0 0 1 3.966 0" fill="#fff" fill-rule="evenodd" data-name="Path 82"/></g><g data-name="Group 83"><path d="M37.07 50.979a1.983 1.983 0 1 1-3.965 0 1.983 1.983 0 0 1 3.966 0" fill="#fff" fill-rule="evenodd" data-name="Path 83"/></g><g data-name="Group 84"><path d="M43.88 53.168a1.983 1.983 0 1 1-3.965 0 1.983 1.983 0 0 1 3.965 0" fill="#fff" fill-rule="evenodd" data-name="Path 84"/></g><g data-name="Group 85"><path d="M50.375 50.978a1.67 1.67 0 1 1-3.342 0 1.67 1.67 0 0 1 3.342 0" fill="#fff" fill-rule="evenodd" data-name="Path 85"/></g><g data-name="Group 86"><path d="M56.87 48.79a1.356 1.356 0 1 1-2.712 0 1.356 1.356 0 0 1 2.713 0" fill="#fff" fill-rule="evenodd" data-name="Path 86"/></g><g data-name="Group 87"><path d="M63.366 50.98a1.044 1.044 0 1 1-2.089 0 1.044 1.044 0 0 1 2.089 0" fill="#fff" fill-rule="evenodd" data-name="Path 87"/></g><g data-name="Group 88"><path d="M70.175 53.168a1.044 1.044 0 1 1-2.089 0 1.044 1.044 0 0 1 2.089 0" fill="#fff" fill-rule="evenodd" data-name="Path 88"/></g><g data-name="Group 89"><path d="M2.088 55.61a1.044 1.044 0 1 1-2.089 0 1.044 1.044 0 0 1 2.089 0" fill="#fff" fill-rule="evenodd" data-name="Path 89"/></g><g data-name="Group 90"><path d="M8.896 57.8a1.044 1.044 0 1 1-2.088 0 1.044 1.044 0 0 1 2.088 0" fill="#fff" fill-rule="evenodd" data-name="Path 90"/></g><g data-name="Group 91"><path d="M15.706 59.989a1.044 1.044 0 1 1-2.09 0 1.044 1.044 0 0 1 2.09 0" fill="#fff" fill-rule="evenodd" data-name="Path 91"/></g><g data-name="Group 92"><path d="M22.514 57.8a1.044 1.044 0 1 1-2.09 0 1.044 1.044 0 0 1 2.09 0" fill="#fff" fill-rule="evenodd" data-name="Path 92"/></g><g data-name="Group 93"><path d="M29.636 55.61a1.356 1.356 0 1 1-2.713.001 1.356 1.356 0 0 1 2.713 0" fill="#fff" fill-rule="evenodd" data-name="Path 93"/></g><g data-name="Group 94"><path d="M36.758 57.8a1.67 1.67 0 1 1-3.341 0 1.67 1.67 0 0 1 3.34 0" fill="#fff" fill-rule="evenodd" data-name="Path 94"/></g><g data-name="Group 95"><path d="M43.254 59.989a1.356 1.356 0 1 1-2.713 0 1.356 1.356 0 0 1 2.713 0" fill="#fff" fill-rule="evenodd" data-name="Path 95"/></g><g data-name="Group 96"><path d="M49.748 57.799a1.044 1.044 0 1 1-2.089 0 1.044 1.044 0 0 1 2.09 0" fill="#fff" fill-rule="evenodd" data-name="Path 96"/></g><g data-name="Group 97"><path d="M56.558 55.61a1.044 1.044 0 1 1-2.089 0 1.044 1.044 0 0 1 2.089 0" fill="#fff" fill-rule="evenodd" data-name="Path 97"/></g><g data-name="Group 98"><path d="M63.366 57.8a1.044 1.044 0 1 1-2.089 0 1.044 1.044 0 0 1 2.089 0" fill="#fff" fill-rule="evenodd" data-name="Path 98"/></g><g data-name="Group 99"><path d="M70.175 59.989a1.044 1.044 0 1 1-2.089 0 1.044 1.044 0 0 1 2.089 0" fill="#fff" fill-rule="evenodd" data-name="Path 99"/></g><g data-name="Group 100"><path d="M2.088 69.252a1.044 1.044 0 1 1-2.089 0 1.044 1.044 0 0 1 2.089 0" fill="#fff" fill-rule="evenodd" data-name="Path 100"/></g><g data-name="Group 101"><path d="M8.896 71.441a1.044 1.044 0 1 1-2.088 0 1.044 1.044 0 0 1 2.088 0" fill="#fff" fill-rule="evenodd" data-name="Path 101"/></g><g data-name="Group 102"><path d="M15.706 73.63a1.044 1.044 0 1 1-2.09 0 1.044 1.044 0 0 1 2.09 0" fill="#fff" fill-rule="evenodd" data-name="Path 102"/></g><g data-name="Group 103"><path d="M22.514 71.44a1.044 1.044 0 1 1-2.09 0 1.044 1.044 0 0 1 2.09 0" fill="#fff" fill-rule="evenodd" data-name="Path 103"/></g><g data-name="Group 104"><path d="M29.323 69.252a1.044 1.044 0 1 1-2.089 0 1.044 1.044 0 0 1 2.09 0" fill="#fff" fill-rule="evenodd" data-name="Path 104"/></g><g data-name="Group 105"><path d="M36.131 71.441a1.044 1.044 0 1 1-2.088 0 1.044 1.044 0 0 1 2.088 0" fill="#fff" fill-rule="evenodd" data-name="Path 105"/></g><g data-name="Group 106"><path d="M42.94 73.63a1.044 1.044 0 1 1-2.088 0 1.044 1.044 0 0 1 2.089 0" fill="#fff" fill-rule="evenodd" data-name="Path 106"/></g><g data-name="Group 107"><path d="M49.748 71.44a1.044 1.044 0 1 1-2.089 0 1.044 1.044 0 0 1 2.09 0" fill="#fff" fill-rule="evenodd" data-name="Path 107"/></g><g data-name="Group 108"><path d="M56.558 69.252a1.044 1.044 0 1 1-2.089 0 1.044 1.044 0 0 1 2.089 0" fill="#fff" fill-rule="evenodd" data-name="Path 108"/></g><g data-name="Group 109"><path d="M63.366 71.441a1.044 1.044 0 1 1-2.089 0 1.044 1.044 0 0 1 2.089 0" fill="#fff" fill-rule="evenodd" data-name="Path 109"/></g><g data-name="Group 110"><path d="M70.175 73.63a1.044 1.044 0 1 1-2.089 0 1.044 1.044 0 0 1 2.089 0" fill="#fff" fill-rule="evenodd" data-name="Path 110"/></g><g data-name="Group 111"><path d="M2.088 62.431a1.044 1.044 0 1 1-2.089 0 1.044 1.044 0 0 1 2.089 0" fill="#fff" fill-rule="evenodd" data-name="Path 111"/></g><g data-name="Group 112"><path d="M8.896 64.62a1.044 1.044 0 1 1-2.088 0 1.044 1.044 0 0 1 2.088 0" fill="#fff" fill-rule="evenodd" data-name="Path 112"/></g><g data-name="Group 113"><path d="M15.706 66.81a1.044 1.044 0 1 1-2.09 0 1.044 1.044 0 0 1 2.09 0" fill="#fff" fill-rule="evenodd" data-name="Path 113"/></g><g data-name="Group 114"><path d="M22.514 64.62a1.044 1.044 0 1 1-2.09 0 1.044 1.044 0 0 1 2.09 0" fill="#fff" fill-rule="evenodd" data-name="Path 114"/></g><g data-name="Group 115"><path d="M29.323 62.431a1.044 1.044 0 1 1-2.089 0 1.044 1.044 0 0 1 2.09 0" fill="#fff" fill-rule="evenodd" data-name="Path 115"/></g><g data-name="Group 116"><path d="M36.445 64.62a1.356 1.356 0 1 1-2.713.001 1.356 1.356 0 0 1 2.713 0" fill="#fff" fill-rule="evenodd" data-name="Path 116"/></g><g data-name="Group 117"><path d="M42.94 66.81a1.044 1.044 0 1 1-2.088 0 1.044 1.044 0 0 1 2.089 0" fill="#fff" fill-rule="evenodd" data-name="Path 117"/></g><g data-name="Group 118"><path d="M49.748 64.62a1.044 1.044 0 1 1-2.089 0 1.044 1.044 0 0 1 2.09 0" fill="#fff" fill-rule="evenodd" data-name="Path 118"/></g><g data-name="Group 119"><path d="M56.558 62.431a1.044 1.044 0 1 1-2.089 0 1.044 1.044 0 0 1 2.089 0" fill="#fff" fill-rule="evenodd" data-name="Path 119"/></g><g data-name="Group 120"><path d="M63.366 64.62a1.044 1.044 0 1 1-2.089 0 1.044 1.044 0 0 1 2.089 0" fill="#fff" fill-rule="evenodd" data-name="Path 120"/></g><g data-name="Group 121"><path d="M70.175 66.81a1.044 1.044 0 1 1-2.089 0 1.044 1.044 0 0 1 2.089 0" fill="#fff" fill-rule="evenodd" data-name="Path 121"/></g></g><g data-name="Group 123"><path d="M365.246 98.757h31.787v8.247h-22.576v8.55h19.87v8.246h-19.87v8.854h22.88v8.247h-32.09V98.757Z" fill="#fff" fill-rule="evenodd" data-name="Path 123"/></g><g data-name="Group 126" transform="translate(220 82.44)" clip-path="url(&quot;#b&quot;)"><g data-name="Group 124"><path d="M180.045 37.512v-.126c0-12.465 9.836-22.678 23.367-22.678 13.533 0 23.244 10.087 23.244 22.553v.125c0 12.47-9.836 22.682-23.37 22.682-13.531 0-23.241-10.087-23.241-22.556m36.524 0v-.126c0-7.518-5.514-13.78-13.283-13.78-7.768 0-13.155 6.138-13.155 13.655v.125c0 7.522 5.511 13.786 13.281 13.786 7.769 0 13.157-6.14 13.157-13.66" fill="#fff" fill-rule="evenodd" data-name="Path 124"/></g><g data-name="Group 125"><path d="M231.992 16.316h19.266c5.359 0 9.512 1.505 12.28 4.274 2.348 2.348 3.616 5.66 3.616 9.634v.121c0 6.804-3.674 11.077-9.033 13.065l10.296 15.05h-10.836l-9.032-13.487h-7.286v13.488h-9.27V16.316Zm18.664 20.472c4.515 0 7.104-2.411 7.104-5.962v-.12c0-3.974-2.769-6.023-7.286-6.023h-9.211v12.105h9.393Z" fill="#fff" fill-rule="evenodd" data-name="Path 125"/></g></g><g data-name="Group 127"><path d="M543.91 98.756v42.145H576v-8.248h-22.878v-8.852h19.868v-8.247h-19.868v-8.55h22.576v-8.248H543.91Z" fill="#fff" fill-rule="evenodd" data-name="Path 127"/></g><g data-name="Group 130" transform="translate(220 82.44)" clip-path="url(&quot;#c&quot;)"><g data-name="Group 128"><path d="M139.005 37.952c-.474.034-.983.053-1.546.053-.546 0-1.047-.02-1.512-.05-2.666-.124-4.69-.568-6.345-1.107a23.495 23.495 0 0 1-.934-.325 42.85 42.85 0 0 1-2.168-.891c-1.578-.685-2.91-1.259-5.044-1.497-.273-.034-.56-.06-.862-.079a33.037 33.037 0 0 0-3.163.007c-.65.047-1.229.121-1.756.219v8.912c.937-.174 2.029-.274 3.405-.274 3.673 0 5.328.717 7.42 1.623.353.152.718.312 1.103.47-2.247 3.743-6.227 6.225-11.17 6.225-7.784 0-13.305-6.276-13.305-13.812V37.3c0-7.532 5.395-13.68 13.177-13.68 5.158 0 9.323 2.755 11.547 6.804h10.831c-2.843-9.12-11.296-15.716-22.25-15.716-13.556 0-23.41 10.23-23.41 22.717v.127c0 12.492 9.727 22.596 23.282 22.596 9.896 0 17.818-5.448 21.376-13.248a22.745 22.745 0 0 0 2.032-8.99c-.23.018-.468.03-.708.041" fill="#fff" fill-rule="evenodd" data-name="Path 128"/></g><g data-name="Group 129"><path d="M317.723 37.952c-.474.034-.983.053-1.546.053-.546 0-1.047-.02-1.512-.05-2.666-.124-4.689-.568-6.345-1.107a23.495 23.495 0 0 1-.934-.325 43.31 43.31 0 0 1-2.168-.891c-1.578-.685-2.91-1.259-5.044-1.497-.273-.034-.56-.06-.862-.079a33.037 33.037 0 0 0-3.163.007c-.649.047-1.229.121-1.756.219v8.912c.937-.174 2.029-.274 3.405-.274 3.673 0 5.328.717 7.42 1.623.353.152.718.312 1.103.47-2.247 3.743-6.227 6.225-11.17 6.225-7.784 0-13.305-6.276-13.305-13.812V37.3c0-7.532 5.395-13.68 13.178-13.68 5.158 0 9.322 2.755 11.547 6.804h10.83c-2.843-9.12-11.296-15.716-22.25-15.716-13.555 0-23.41 10.23-23.41 22.717v.127c0 12.492 9.727 22.596 23.283 22.596 9.895 0 17.817-5.448 21.375-13.248a22.745 22.745 0 0 0 2.032-8.99c-.23.018-.467.03-.708.041" fill="#fff" fill-rule="evenodd" data-name="Path 129"/></g></g></g><defs><clipPath id="a"><path d="M0 11.828h356v-74.674H0v74.674Z" data-name="Path 122" transform="translate(0 62.846)"/></clipPath><clipPath id="b"><path d="M0 11.828h356v-74.674H0v74.674Z" data-name="Path 126" transform="translate(0 62.846)"/></clipPath><clipPath id="c"><path d="M0 11.828h356v-74.674H0v74.674Z" data-name="Path 130" transform="translate(0 62.846)"/></clipPath></defs></svg>